<svg xmlns="http://www.w3.org/2000/svg" viewBox="0 0 76.13 133.47"><defs><style>.cls-1{fill:#8f9293;}.cls-2{fill:#77594f;}.cls-3{fill:#ffe2a7;}.cls-4{fill:#aaa8a7;}.cls-5{fill:#f2e6df;}.cls-6{fill:#dbae7d;}.cls-7{fill:#c4b36c;}.cls-8{fill:#1b1464;}.cls-9{fill:#ffd196;}</style></defs><g id="Laag_2" data-name="Laag 2"><g id="Laag_1-2" data-name="Laag 1"><path class="cls-1" d="M28.16,45.92l10,9.46C33.89,57.53,24,62.94,24.84,67.67c.32,1.82,2.16,2.09,11.7,7.06,1.34.7,8.62,4.51,15,7.91,6,3.22,6.8,3.73,8.65,3.78,2.75.08,5.53-.89,8.92.66.2.09,1.77.82,1.66,1.33-.21,1-6.24,0-6.58,1.26-.13.5.7,1.13,1,1.31,2.35,1.76,5.58-.08,6.22,1,.38.65-.43,1.91-1.21,2.58-.51.43-1.72,1.23-4.48.86A15.1,15.1,0,0,1,58.29,92c-3.91-3.38-7.78-3.48-25.17-9.45-5.94-2-14.53-5.14-25.09-9.46A73.55,73.55,0,0,1,28.2,45.93Z"/><path class="cls-2" d="M41.78,0c-1.35,0-4.16-.16-6,1.72A5.22,5.22,0,0,0,34.9,3a7.74,7.74,0,0,0-1.27.08C28.76,3.81,26,9.36,22.94,15.69,14.13,34,13.55,36.39,15,38.25c1.63,2.1,4.92,2.29,6.24,2.36,5.88.34,7.54-4.1,11.69-3.23,3.54.74,3.44,4.22,8.82,6.22,1.85.68,3.56,1.32,5.34.86C52.76,43,54.36,32,55.56,23.66c1.06-7.3,1.55-11-.29-14.73A16.82,16.82,0,0,0,41.78,0Z"/><path class="cls-3" d="M52.33,14.52c.4,3,.79,5.92,1.19,8.87H51c-5.81-1.73-7.63-1.56-8-.88-.71,1.35,4.28,5,3.55,6.16-.52.81-3-1.08-4.93-.21C38.17,30,39.26,41.13,40.7,47.65c.79,3.58,1.5,5,1.5,8.26A26.27,26.27,0,0,1,39.93,66a80.31,80.31,0,0,1-7.3,14.23c-3.4,5.2-7.22,13.5-8.6,26.87L8,107Q4.09,96.95.18,86.89A51.12,51.12,0,0,1,.77,73.76c.7-3.93,3.07-17.32,13.49-27C17.15,44.09,30,33,33.8,29.33A5.68,5.68,0,0,0,35.68,26a6.84,6.84,0,0,0-1-3.91c-1-1.79-1.88-1.91-2.08-3.22a2.9,2.9,0,0,1,1-2.8,2.82,2.82,0,0,1,1.89-.25c1.12.14,1.49.62,2.12.74s1.93-.24,3.68-2.51Z"/><path class="cls-4" d="M52.33,14.52c.4,3,.79,5.92,1.19,8.87H51a.67.67,0,0,1-.15.59c-.57.52-2.2-1.25-3.57-.8a2.34,2.34,0,0,0-1.38,2.59c.57,1.43,3.79,1,4,1.94.09.53-.83,1.23-1.72,1.57-2.74,1-4.89-1.52-6.51-.86-1.46.59-2.78,3.14-2.1,11.8a10.76,10.76,0,0,1-12.53-4.73l5.59-5A8.58,8.58,0,0,0,34,29.05a6.87,6.87,0,0,0,1.44-3.16,6.4,6.4,0,0,0-.72-3.81,4.85,4.85,0,0,1-2.08-3.22c-.18-1.33.19-3.57,1.74-4a3.18,3.18,0,0,1,3.25,1.68L41.29,14C47.2,9.18,49.34,8.41,50,9s0,1.58.86,3.39A7.4,7.4,0,0,0,52.33,14.52Z"/><path class="cls-5" d="M73.82,92.37,61.57,92l-2.19-7.49H76.13Z"/><path class="cls-6" d="M23.61,111.26c3.18-.56,10.67-1.9,20.35-3.66,22.16-4,29.2-5.38,31.75-1.82.47.65,1,1.82-1.39,14.54-1.06,5.52-2.07,10.06-2.8,13.14H57.6Z"/><path class="cls-7" d="M50.85,29.52,50,31.43a39.62,39.62,0,0,0,4.81-3.18,40.5,40.5,0,0,0,3.87-3.41,1.43,1.43,0,0,0-1-.34,1.54,1.54,0,0,0-1.07.52,35.41,35.41,0,0,1-3.1,2.64A30.16,30.16,0,0,1,50.85,29.52Z"/><path class="cls-8" d="M53.57,28c0,1.68.7,2.82,1.44,2.89a1.27,1.27,0,0,0,1-.53l3.72,4.24.88-.77c-1.2-1.42-2.4-2.83-3.59-4.25.68-.32.77-.67.79-.79.12-.66-.83-1.59-2.51-2.08,1.26,1.49,1.38,1.94,1.27,2.08s-.51.06-1.83-.73c.4,1.15.53,1.76.38,1.83S54.47,29.37,53.57,28Z"/><path class="cls-9" d="M24.06,107.11a9.52,9.52,0,0,0,1.56,4.68,10.67,10.67,0,0,0,1.26,1.49c2.5,2.35,6.87,2.24,8,2.21,7-.22,14.43-.43,22.78-.74a31.23,31.23,0,0,0,0,18.72l-42.79-.1L8,106.93Z"/><path class="cls-4" d="M23.25,65.17c.74,1.78,3.22,7.25,6.66,7.19a1.88,1.88,0,0,0,.63-.08c1.45-.41,2.64-2.67,8.5-10.07C40,61,45.1,54.58,49.63,49c4.29-5.3,4.93-6,5.34-7.79,1.1-4.92.64-7.07,2.32-8.64.48-.44,1.07-.76,1.26-.61s-.42,1.29-.61,3.23c-.11,1.11.05,1.44.26,1.62a1.09,1.09,0,0,0,1.22,0c.43-.33.34-1,.29-2.64s-.08-2.64.1-2.71c.47-.19,2.54,2.13,3,5.09a8.35,8.35,0,0,1-2.64,7.54l-.08.07c-3.71,2.92-4.31,6-14,22.94C43,72.47,38.45,80.21,32.48,89.64a.72.72,0,0,1-.4.3.73.73,0,0,1-.5,0A79.75,79.75,0,0,1,16.42,75.63c-1-1.24-2-2.48-2.84-3.71Z"/><path class="cls-2" d="M15.93,39.12a13.77,13.77,0,0,1,4.46-10.26,13.63,13.63,0,0,1,14.68-1.75c-.4.84-1,2.18-1.88,3.8C29,39,27,40.53,25.87,40.91a1.93,1.93,0,0,1-.34.11C21.79,42.09,18.36,40.66,15.93,39.12Z"/><path class="cls-1" d="M60.93,91.43c.26-.55,1.87.43,6,.38,2.42,0,4.22-.4,4.5.27.14.34-.19.78-.48,1.16a6.12,6.12,0,0,1-3.88,2.17C63.66,95.72,60.53,92.26,60.93,91.43Z"/><path class="cls-7" d="M61.67,84.55l.09-3.41,1,.92-.15,2.49h1.72l-.06-3.38a2,2,0,0,1,.62-1A2,2,0,0,1,66,79.74v1.53c-.1,1.08-.2,2.16-.29,3.24h.57c.11-.54.21-1.08.32-1.62l.4.34-.14,1.28h.45V82.2l.91.54.08,1.77h1.66a4.81,4.81,0,0,0,.47-1.43,5.17,5.17,0,0,0,.06-1.47l1.28-.85a7.44,7.44,0,0,1,0,2,8,8,0,0,1-.37,1.75h2.24l-.06-1.8.07-1.14,1.52.34-.24,2.6Z"/></g></g></svg>