<svg xmlns="http://www.w3.org/2000/svg" viewBox="0 0 100.14 133.5"><defs><style>.cls-1{fill:#443531;}.cls-2{fill:#8f9293;}.cls-3{fill:#785ba5;}.cls-4{fill:#b7bbbc;}.cls-5{fill:#af93df;}.cls-6{fill:#cdc3e8;}.cls-7{fill:#1b1464;}</style></defs><g id="Laag_2" data-name="Laag 2"><g id="Laag_1-2" data-name="Laag 1"><path class="cls-1" d="M62.6.19C54.35-1.24,48.45,6,47.87,6.75c-1.82,2.32-1.62,3.4-3.42,7.52-.22.51-4.28,9.62-10.44,15.38-5.87,5.5-9.46,4-17.35,8.46C12,40.72,5.79,45.39,0,54.55L12.66,75.62c.79-.31,2.45-1,4.54-1.77,23.93-9.18,36-13.61,44.34-11.08a14.67,14.67,0,0,0,6.57.73c.9-.13,5.38-.73,7.87-4.23,1.91-2.68,1.67-5.66,1.32-9.34-.63-6.57-2.72-7.6-3.8-13.86-.32-1.84-.21-5.39,0-12.4.34-11.07.8-12.19-.29-14.73A14.73,14.73,0,0,0,62.6.19Z"/><path class="cls-2" d="M55.13,69c1.25.32,1.18,2.47,2.27,7.37,2.8,12.61,5.06,11,6.85,20,.33,1.63.9,5,3.3,6.22a12.86,12.86,0,0,0,2.83.87c2.39.45,3.66,0,4.3.88a1.9,1.9,0,0,1,.13,1.9c-.67,1.28-2.82.9-6,1.33-4.94.66-6.78,2.49-7.7,1.55s1-3.13.78-6.53c-.23-3-2-4.95-3.49-6.67C53.85,90.48,48,83.54,48.58,77.38,49,72.7,53.16,68.46,55.13,69Z"/><path class="cls-3" d="M71.51,14V23.4H69c-.28,2.5-1,5.09-2.86,5.93-2.41,1.1-4.53-1.76-6.51-.86-3.45,1.56-2.4,12.59-1,19.19.79,3.58,1.5,5,1.5,8.26A26.44,26.44,0,0,1,57.88,66a80.74,80.74,0,0,1-7.3,14.24c-3.4,5.2-7.21,13.5-8.6,26.87L26,107,18.22,86.9a50.22,50.22,0,0,1,.59-13.13c.7-3.93,3.07-17.32,13.49-27C35.19,44.1,48,33,51.84,29.34A5.77,5.77,0,0,0,53.72,26a6.87,6.87,0,0,0-1-3.91c-1-1.8-1.88-1.91-2.08-3.22a2.89,2.89,0,0,1,1-2.8,2.81,2.81,0,0,1,1.89-.25c1.12.14,1.49.62,2.12.74s1.93-.24,3.68-2.52Z"/><path class="cls-4" d="M71.51,14V23.4H69c-.28,2.5-1,5.09-2.86,5.93-2.37,1.08-4.71-1.55-6.51-.86-2,.76-3,5.48-1,19.19a41.23,41.23,0,0,1-19.79-6.57c6.06-5.17,10.61-9.36,12.91-11.69A5.85,5.85,0,0,0,53.63,26a6.87,6.87,0,0,0-1-3.91c-1-1.8-1.88-1.91-2.08-3.22a2.89,2.89,0,0,1,1-2.8,2.81,2.81,0,0,1,1.89-.25c1.12.14,1.49.62,2.12.74s1.93-.24,3.68-2.52Z"/><path class="cls-5" d="M41.58,111.27c3.17-.56,10.66-1.9,20.34-3.66,22.16-4,29.2-5.38,31.75-1.83,1.09,1.53.28,5.89-1.39,14.55-1.07,5.52-2.11,10-2.85,13.1l-13.85.07Z"/><path class="cls-6" d="M42,107.12a9.56,9.56,0,0,0,1.56,4.68,10.46,10.46,0,0,0,1.26,1.49c2.5,2.35,6.87,2.24,8,2.21,7-.22,14.43-.43,22.78-.74a31.05,31.05,0,0,0,0,18.74l-42.8-.11L26,107Z"/><path class="cls-7" d="M90.39,60,92,61.39c1.36-2,2.76-4.08,4.14-6.42,1.52-2.58,2.83-5.06,4-7.4L98.45,46.5Z"/><path class="cls-4" d="M34.88,69.33l13.23-3.87c-.3,4.77-.63,16,3.87,17.71,1.73.65,2.89-.8,12-6.51,1.29-.81,8.26-5.16,14.41-8.92,5.81-3.56,6.65-4,7.63-5.56,1.46-2.32,2-5.22,5.08-7.36.18-.12,1.61-1.11,2-.75.74.67-3.16,5.38-2.24,6.3.37.37,1.33,0,1.61-.15,2.71-1.14,2.76-4.86,4-4.86.75,0,1.43,1.33,1.61,2.35.12.66.19,2.1-1.52,4.29a15.14,15.14,0,0,1-6.7,4.69c-4.86,1.7-7,5-20.86,16.93-4.76,4.09-11.78,9.94-20.85,16.85a73.67,73.67,0,0,1-10-18.72A72.35,72.35,0,0,1,34.88,69.33Z"/><path class="cls-1" d="M36.09,46c-3,8.86.58,13.33-2.63,19C31.8,68,28.11,71.56,18.78,73.27c-.58-1-8.16-14.31-1.61-26.64,6.87-13,24.58-15.84,26.28-13.24C44.48,35,39,37.65,36.09,46Z"/></g></g></svg>