<svg xmlns="http://www.w3.org/2000/svg" viewBox="0 0 98.2 189.33"><defs><style>.cls-1{fill:#aaa8a7;}.cls-2{fill:#bc906c;}.cls-3{fill:#a55656;}.cls-4{fill:#914646;}.cls-5{fill:#be6866;}</style></defs><g id="Laag_2" data-name="Laag 2"><g id="Laag_1-2" data-name="Laag 1"><path class="cls-1" d="M36.49,14c-.23,2.67-.45,5.35-.67,8l2.42-.15a3.15,3.15,0,0,1,.08,1.64c-.1.45-.25.62-.18.8s.82.54,3.22.24a1.33,1.33,0,0,1,0,1c-.27.54-1,.93-2.07,1.43a.9.9,0,0,0-.47.43.88.88,0,0,0,0,.64,3.48,3.48,0,0,0,1.46,2.15,3.81,3.81,0,0,0,2.45.15c1.17-.14,4.36-.54,5.74.46.59.41,1.57,1.58,1,5.54l14.1-.16A16.48,16.48,0,0,1,58.67,28C57.14,21.16,62,17.73,60.45,12c-1.28-4.77-6.65-10.07-13-9.42C42,3.1,37.4,7.77,36.49,14Z"/><path class="cls-2" d="M46.73,12.52c0,1.26-.18,6.47,1.35,6.85a1.11,1.11,0,0,0,.83-.2,3.42,3.42,0,0,1,1.16-4,3.1,3.1,0,0,1,3.18-.1,2.86,2.86,0,0,1,1.1,1.21c.72,1.45.13,3.5-1.36,5.28a5.72,5.72,0,0,0,1.15,2.84,9.08,9.08,0,0,0,1.66,1.43c.66.5,1.62,1.24,2.78,2.17.22-.85.57-2.14,1.11-3.67.29-.83.57-1.55.81-2.13.36-.86.64-1.47.69-1.57.34-.74,2.4-5.9,1.52-10.16C61.48,4.47,54.3-.18,48.54,0c-.27,0-2.49.53-6.93,1.57-5.19,1.22-6,1.48-6.64,2.25-2.25,2.75.65,8.52,1.52,10.14a11.66,11.66,0,0,1,3.94-1.68A12.57,12.57,0,0,1,46.73,12.52Z"/><path class="cls-3" d="M87,59.6C81.58,46.6,76,40.81,69.53,38a25,25,0,0,0-6.05-1.81l-14.1.16a75.8,75.8,0,0,0-.92,13.88,46.7,46.7,0,0,0,1.13,9.49c.24,1,.39,1.47.84,3.08,0,0,1.21,3.89,2.66,10.3S56.81,96.22,57.37,119l11.15,6.44a56.34,56.34,0,0,0-14.13,28.76q1.59,17.58,3.16,35.15H70.66Q69.9,177.78,69,166.07q-.51-6.76-1.06-13.49A121.26,121.26,0,0,0,93.59,122.2c1.7-2.88,3.21-5.72,4.56-8.5C97.6,103.82,95.67,80.21,87,59.6Z"/><path class="cls-4" d="M81.57,137.48q-5.46,25.94-10.91,51.85H81.72c2.81-8,5.49-16.68,7.87-26A315.15,315.15,0,0,0,98.2,113.7Q89.86,125.6,81.57,137.48Z"/><path class="cls-1" d="M19.82,73.92a19.05,19.05,0,0,1-5.54-.13C10,73.05,8.9,71.3,5.83,71.58c-.58,0-4.46.46-5.55,3.34-.9,2.36.47,5.43,2.42,6.23,1.52.62,3-.29,4.76-1a21.07,21.07,0,0,1,11.66-.81Z"/><path class="cls-4" d="M38.71,122.37c-.85-.11-1.33-1.9-1.46-2.93-.54-4.25,3.52-7.85,4.61-8.77l-2.22-1q4.84-25.28,9.68-50.57A55.16,55.16,0,0,1,56.2,91,54,54,0,0,1,49,113.18L45,111.82c-.71,1.5-1.73,3.6-3,6.09C40.12,121.42,39.4,122.46,38.71,122.37Z"/><path class="cls-5" d="M41.72,71.18l-22,.91-.21,1.83c-.2,1.8-.41,3.62-.62,5.44v1.51A130.13,130.13,0,0,0,38,83.77c4.3.33,8.34.42,12.08.36a48.92,48.92,0,0,1,8.81-14.65c5.27-6,8.78-6.52,12.59-12.54,2.88-4.55,6-12.1,3.19-15.7a4.9,4.9,0,0,0-1.13-1.05c-3.47-2.63-8.09-1.66-9.65-1.33-6.85,1.45-10.49,7.67-11.17,8.89Z"/><path class="cls-5" d="M68.52,125.42a56.34,56.34,0,0,0-14.13,28.76q1.59,17.58,3.16,35.15H70.66Q69.9,177.78,69,166.07q-.51-6.76-1.06-13.49A121.26,121.26,0,0,0,93.59,122.2c1.7-2.88,3.21-5.72,4.56-8.5Z"/></g></g></svg>