<svg xmlns="http://www.w3.org/2000/svg" viewBox="0 0 104.81 191.08"><defs><style>.cls-1{fill:#aaa8a7;}.cls-2{fill:#914646;}.cls-3{fill:#77594f;}.cls-4{fill:#be6866;}.cls-5{fill:#a55656;}</style></defs><g id="Laag_2" data-name="Laag 2"><g id="Laag_1-2" data-name="Laag 1"><path class="cls-1" d="M61.71,16.72c.22,2.67.44,5.33.67,8L60,24.57a3.26,3.26,0,0,0-.07,1.64c.1.45.25.61.18.8s-.82.54-3.23.24a1.33,1.33,0,0,0,.05,1c.27.54,1,.93,2.07,1.43a.94.94,0,0,1,.47.43,1,1,0,0,1,0,.64A3.53,3.53,0,0,1,58,32.9a3.78,3.78,0,0,1-2.46.15c-1.16-.15-4.35-.54-5.74.46-.58.41-1.57,1.58-1,5.53l-14.1-.16a27.87,27.87,0,0,0,4.9-8.13c2.73-7.06.77-11.22,3.23-14C44.09,15.37,48.06,12.33,61.71,16.72Z"/><path class="cls-2" d="M37.23,13.28A24.29,24.29,0,0,1,37.6,8,11.17,11.17,0,0,1,39,3.61,8.72,8.72,0,0,1,43.47.25c1-.36,2.39-.66,11.09,1.54C59.36,3,61,3.62,61.91,5.21c.33.57.36.92,1,3.25S64,12.61,64.3,13.82c1.44.48,2.62.81,3.41,1,3.06.82,5.86,1.27,7,2.75.15.18.55.69.4,1.15s-.74.61-1,.68c-1.78.52-10.83-2.2-12.47-2.7Z"/><path class="cls-2" d="M59.49,125.18c.85-.11,1.33-1.9,1.46-2.93.53-4.25-3.52-7.86-4.61-8.78l2.22-1Q53.72,87.18,48.88,61.9A55.23,55.23,0,0,0,42,93.81,54,54,0,0,0,49.24,116l3.93-1.36c.71,1.5,1.74,3.6,3,6.08C58.08,124.18,58.85,125.18,59.49,125.18Z"/><path class="cls-3" d="M51.47,15.28c0,1.26.17,6.47-1.35,6.85a1.08,1.08,0,0,1-.83-.2,3.4,3.4,0,0,0-1.17-4,3.11,3.11,0,0,0-3.17-.1A2.94,2.94,0,0,0,43.84,19c-.71,1.45-.12,3.5,1.37,5.28a5.74,5.74,0,0,1-1.15,2.84,9.08,9.08,0,0,1-1.66,1.43c-.66.5-1.62,1.24-2.79,2.17-.21-.85-.56-2.14-1.1-3.67a39.7,39.7,0,0,0-1.5-3.7c-.76-1.73-1.22-4.7.22-10.11Z"/><path class="cls-4" d="M11.16,62.36c5.45-13,11.05-18.79,17.51-21.65a25.67,25.67,0,0,1,6-1.82l14.1.16L76,45.78,88,27.31l1.68.74a18.5,18.5,0,0,0,2.78-4.79c1.59-4,.7-5.89,2.54-8.36.34-.46,2.73-3.56,5.75-3,2.48.47,4.38,3.23,4,5.32-.26,1.62-1.79,2.37-3.33,3.53a21.21,21.21,0,0,0-6.78,9.52l1.28.81A130.05,130.05,0,0,1,88.65,49c-1.91,3.86-3.89,7.39-5.85,10.58a147.64,147.64,0,0,1-17.09.12A150.18,150.18,0,0,1,50,58.1a178.53,178.53,0,0,0-9.16,63.63l-11.17,6.45a56.33,56.33,0,0,1,14.17,28.75Q42.31,174,40.78,191.08H27.58q.75-11.06,1.6-22.25.51-6.77,1-13.49A120.87,120.87,0,0,1,4.56,125c-1.7-2.88-3.21-5.72-4.56-8.5C.59,106.58,2.52,83,11.16,62.36Z"/><path class="cls-5" d="M29.68,128.18a56.41,56.41,0,0,1,14.17,28.75Q42.31,174,40.78,191.07H27.58q.75-11.07,1.6-22.25.51-6.78,1-13.49A121.3,121.3,0,0,1,4.56,124.94c-1.7-2.88-3.21-5.72-4.56-8.49Z"/><path class="cls-1" d="M89.69,28.05a18.5,18.5,0,0,0,2.78-4.79c1.59-4,.7-5.89,2.54-8.36.34-.46,2.73-3.56,5.75-3,2.48.47,4.38,3.23,4,5.32-.26,1.62-1.79,2.37-3.33,3.53a21.21,21.21,0,0,0-6.78,9.52Z"/><path class="cls-2" d="M16.63,140.24l11,50.84H16.31c-2.75-7.69-5.37-16-7.7-25A298.38,298.38,0,0,1,.05,116.43Z"/></g></g></svg>