<svg xmlns="http://www.w3.org/2000/svg" viewBox="0 0 94.17 147.76"><defs><style>.cls-1{fill:#90afbf;}.cls-2{fill:#608bb9;}.cls-3{fill:#b8d3e4;}.cls-4{fill:#918d8b;}.cls-5{fill:#77594f;}</style></defs><g id="Laag_2" data-name="Laag 2"><g id="Laag_1-2" data-name="Laag 1"><path class="cls-1" d="M36.09,127c25.74-2.21,44.63-2.89,45.74-1.6.43.5.8,1,.8,1a12.18,12.18,0,0,1,1.49,3l-49.19.85C35.31,129.17,35.7,128.08,36.09,127Z"/><path class="cls-2" d="M.79,91.63A39.79,39.79,0,0,1,3.55,67.31c1.57-3.3,2.8-6.19,5.78-7.72,7.59-3.9,18.92,4.38,24,9.53A39,39,0,0,1,43.94,90.65c1.23,8.39-.66,14.53-4.31,25.63-5.58,17-9.36,28.52-14.56,28.92S12.14,134.67.79,91.63Z"/><path class="cls-3" d="M13.24,130.38c40.38-.54,69.69-.92,74.26-1.15a6.61,6.61,0,0,1,4.72,1.3c1.12,1,1.62,2.43,1.86,4.59a26.81,26.81,0,0,1-2,12.57H19.93A21.46,21.46,0,0,1,14,138.15,21,21,0,0,1,13.24,130.38Z"/><path class="cls-4" d="M41.66,26.44q-.12,5.91-.25,11.83l-2.67-.11a9.3,9.3,0,0,1-3.46,9.77,9.18,9.18,0,0,1-6.91,1.24v9.51A28.55,28.55,0,0,1,12.49,55.9q1.86-4.15,3.71-8.31a19.08,19.08,0,0,1,8-19.91C32.15,22.57,40.9,26.12,41.66,26.44Z"/><path class="cls-5" d="M38.48,7.27a13.49,13.49,0,0,1,1.4,7.8c.22.14,5.06,3.32,4.57,7.33-.26,2.13-2.34,3.68-3.35,4.49a14,14,0,0,1-3.31,1.92,37.52,37.52,0,0,1-7.89,2.43c-1.14-1.51-2.67-2.46-3.82-2.11C24.43,29.65,24,32.8,24.8,35A6.1,6.1,0,0,0,28,38.15a12,12,0,0,1-3.43,6.12c-4.7,4.31-13.71,4.61-16.91,0a8.7,8.7,0,0,1,0-9.31A8.25,8.25,0,0,1,11.13,32C3.87,26,2.72,16.91,6.47,12.23c3.19-4,9.11-3.83,10.1-3.79.22-.67,2.24-6.4,7.73-8C30.1-1.35,36,2.67,38.48,7.27Z"/><path class="cls-1" d="M33.3,59.12a9.84,9.84,0,0,1,.06,10l-24-9.53,3.17-3.69Z"/><path class="cls-1" d="M18.45,74.23a5,5,0,0,0-3.39,1.89c-4,4.19-3.79,13.67-3.73,15.44H27.61c-.17-2.48-.93-10.65-5-15C21.79,75.71,20.36,74.16,18.45,74.23Z"/><path class="cls-4" d="M13.09,91.56l5.49,35.83a87.32,87.32,0,0,0,12.05,15.5c1.74,1.78,3.47,3.4,5.17,4.87H48.09c-3.47-3.69-7.07-7.83-10.67-12.43-2.54-3.24-4.85-6.42-7-9.5q-1.83-17.14-3.68-34.32Z"/></g></g></svg>