<svg xmlns="http://www.w3.org/2000/svg" viewBox="0 0 1366 368.84"><defs><style>.cls-1{opacity:0.5;}.cls-2{fill:#80bcb3;}.cls-3{fill:#d0baad;}.cls-4{fill:#736357;}.cls-5{fill:#534741;}.cls-6{fill:#998675;}.cls-7{fill:#736c66;}.cls-8{fill:#928282;}.cls-9{fill:#c68660;}</style></defs><g id="Laag_2" data-name="Laag 2"><g id="Laag_1-2" data-name="Laag 1"><g class="cls-1"><rect class="cls-2" x="50.18" y="106.13" width="235.22" height="136.31" rx="12"/><rect class="cls-2" x="389.37" y="106.13" width="235.22" height="136.31" rx="12"/><rect class="cls-2" x="728.57" y="106.13" width="235.22" height="136.31" rx="12"/><rect class="cls-2" x="1067.76" y="106.13" width="235.22" height="136.31" rx="12"/></g><path class="cls-3" d="M0,60.83V287.74H1366V60.83ZM285.4,230.44a12,12,0,0,1-12,12H62.18a12,12,0,0,1-12-12V118.13a12,12,0,0,1,12-12H273.4a12,12,0,0,1,12,12Zm339.19,0a12,12,0,0,1-12,12H401.37a12,12,0,0,1-12-12V118.13a12,12,0,0,1,12-12H612.59a12,12,0,0,1,12,12Zm339.19,0a12,12,0,0,1-12,12H740.57a12,12,0,0,1-12-12V118.13a12,12,0,0,1,12-12H951.78a12,12,0,0,1,12,12Zm339.2,0a12,12,0,0,1-12,12H1079.76a12,12,0,0,1-12-12V118.13a12,12,0,0,1,12-12H1291a12,12,0,0,1,12,12Z"/><path class="cls-4" d="M158.87,202l16.4-.06a36.71,36.71,0,0,0,3.45-13c.28-3.7.66-9-1.88-13.95-4.69-9.07-18.29-13.88-22.68-10.06-2.44,2.12-1.17,9,1.48,22.6C156.77,193.45,157.94,198.36,158.87,202Z"/><path class="cls-5" d="M172.65,287.69q-3.77-19.8-7.17-40.64-3.73-23-6.61-45l16.4-.06a209.69,209.69,0,0,1,19.95,32.67,208.34,208.34,0,0,1,11,27.08,209.14,209.14,0,0,1,6.68,25.94Z"/><path class="cls-6" d="M163.26,232.91l8.12,48a4.13,4.13,0,0,1-1.85,0c-5.24-1.2-6.13-13.09-10.46-42.93l-.73-5Z"/><path class="cls-4" d="M455.57,202l16.43-.1a36.51,36.51,0,0,0,3.46-13c.27-3.7.65-9-1.88-13.95-4.7-9.07-18.29-13.88-22.69-10.06-2.43,2.12-1.16,9,1.48,22.6C453.48,193.45,454.64,198.36,455.57,202Z"/><path class="cls-5" d="M469.35,287.69q-3.77-19.8-7.16-40.64-3.75-23-6.62-45l16.43-.14a208.3,208.3,0,0,1,37.64,85.69Z"/><path class="cls-6" d="M460,232.91q4,24,8.11,48a4.08,4.08,0,0,1-1.84,0c-5.25-1.2-6.13-13.09-10.46-42.93-.34-2.35-.62-4.21-.74-5Z"/><path class="cls-4" d="M599.22,202l16.4-.06a36.51,36.51,0,0,0,3.46-13c.27-3.7.65-9-1.88-13.95-4.7-9.07-18.29-13.88-22.69-10.06-2.44,2.12-1.16,9,1.48,22.6C597.13,193.45,598.29,198.36,599.22,202Z"/><path class="cls-5" d="M613,287.69q-3.76-19.8-7.16-40.64-3.75-23-6.62-45l16.4-.06a208.3,208.3,0,0,1,37.64,85.69Z"/><path class="cls-6" d="M603.61,232.91q4.07,24,8.12,48a4.08,4.08,0,0,1-1.84,0c-5.25-1.2-6.13-13.09-10.46-42.93-.34-2.35-.62-4.21-.74-5Z"/><path class="cls-4" d="M746.29,202l16.4-.06a36.51,36.51,0,0,0,3.46-13c.27-3.7.65-9-1.89-13.95-4.69-9.07-18.28-13.88-22.68-10.06-2.44,2.12-1.16,9,1.48,22.6C744.2,193.45,745.36,198.36,746.29,202Z"/><path class="cls-5" d="M760.07,287.69q-3.77-19.8-7.16-40.64-3.75-23-6.62-45l16.4-.06a208.3,208.3,0,0,1,37.64,85.69Z"/><path class="cls-6" d="M750.68,232.91q4.07,24,8.12,48a4.08,4.08,0,0,1-1.84,0c-5.25-1.2-6.13-13.09-10.46-42.93-.34-2.35-.62-4.21-.74-5Z"/><path class="cls-4" d="M895.07,202l16.4-.06a36.51,36.51,0,0,0,3.46-13c.27-3.7.65-9-1.89-13.95-4.69-9.07-18.28-13.88-22.68-10.06-2.44,2.12-1.16,9,1.48,22.6C893,193.45,894.14,198.36,895.07,202Z"/><path class="cls-5" d="M908.85,287.69q-3.76-19.8-7.16-40.64-3.75-23-6.62-45l16.4-.06a208.3,208.3,0,0,1,37.64,85.69Z"/><path class="cls-6" d="M899.46,232.91l8.12,48a4.13,4.13,0,0,1-1.85,0c-5.24-1.2-6.12-13.09-10.45-42.93-.34-2.35-.62-4.21-.74-5Z"/><path class="cls-4" d="M1040.43,202l16.4-.06a36.72,36.72,0,0,0,3.46-13c.27-3.7.65-9-1.89-13.95-4.69-9.07-18.28-13.88-22.68-10.06-2.44,2.12-1.16,9,1.48,22.6C1038.33,193.45,1039.5,198.36,1040.43,202Z"/><path class="cls-5" d="M1054.21,287.69q-3.76-19.8-7.17-40.64-3.74-23-6.61-45l16.4-.06a208.3,208.3,0,0,1,37.64,85.69Z"/><path class="cls-6" d="M1044.82,232.91q4.07,24,8.12,48a4.13,4.13,0,0,1-1.85,0c-5.24-1.2-6.12-13.09-10.45-42.93-.34-2.35-.62-4.21-.74-5Z"/><path class="cls-4" d="M1188.35,202l16.4-.06a36.3,36.3,0,0,0,3.46-13c.28-3.7.66-9-1.88-13.95-4.69-9.07-18.29-13.88-22.68-10.06-2.44,2.12-1.17,9,1.47,22.6C1186.26,193.45,1187.42,198.36,1188.35,202Z"/><path class="cls-5" d="M1202.14,287.69q-3.78-19.8-7.17-40.64-3.73-23-6.62-45l16.4-.06a208.45,208.45,0,0,1,37.65,85.69Z"/><path class="cls-6" d="M1192.75,232.91q4.05,24,8.12,48a4.13,4.13,0,0,1-1.85,0c-5.25-1.2-6.13-13.09-10.46-42.93-.34-2.35-.61-4.21-.74-5Z"/><path class="cls-4" d="M15.22,202l16.4-.06a36.71,36.71,0,0,0,3.45-13c.28-3.7.66-9-1.88-13.95-4.69-9.07-18.29-13.88-22.68-10.06-2.44,2.12-1.17,9,1.48,22.6C13.12,193.45,14.29,198.36,15.22,202Z"/><path class="cls-5" d="M29,287.69q-3.77-19.8-7.17-40.64-3.73-23-6.61-45l16.4-.06a208.75,208.75,0,0,1,20,32.67,209.7,209.7,0,0,1,15.55,43.12c1,4.05,1.68,7.47,2.14,9.9Z"/><path class="cls-6" d="M19.61,232.91q4.07,24,8.12,48a4.13,4.13,0,0,1-1.85,0c-5.24-1.2-6.13-13.09-10.45-42.93-.35-2.35-.62-4.21-.74-5Z"/><path class="cls-4" d="M306.79,202l16.4-.06a36.51,36.51,0,0,0,3.46-13c.28-3.7.65-9-1.88-13.95-4.7-9.07-18.29-13.88-22.69-10.06-2.43,2.12-1.16,9,1.48,22.6C304.7,193.45,305.86,198.36,306.79,202Z"/><path class="cls-5" d="M320.57,287.69q-3.76-19.8-7.16-40.64-3.75-23-6.62-45l16.4-.06a208.3,208.3,0,0,1,37.64,85.69Z"/><path class="cls-6" d="M311.19,232.91q4.05,24,8.11,48a4.08,4.08,0,0,1-1.84,0c-5.25-1.2-6.13-13.09-10.46-42.93-.34-2.35-.62-4.21-.74-5Z"/><rect class="cls-7" y="287.74" width="1366" height="32.1"/><rect class="cls-8" y="319.84" width="1366" height="49"/><path class="cls-9" d="M1366,14.54Q1023.79,0,681.57,0,340.79,0,0,14.54V60.83H1366Z"/></g></g></svg>