<svg xmlns="http://www.w3.org/2000/svg" viewBox="0 0 112.98 127.63"><defs><style>.cls-1{fill:#006837;}.cls-2{fill:#789c7b;}.cls-3{fill:#b7bbbc;}.cls-4{fill:#e5c67f;}.cls-5{fill:#afa787;}.cls-6{fill:#efded0;}.cls-7{fill:#e6e6e6;}.cls-8{fill:#a7c1a8;}.cls-9{fill:#8f9293;}.cls-10{fill:#608566;}</style></defs><g id="Laag_2" data-name="Laag 2"><g id="Laag_1-2" data-name="Laag 1"><path class="cls-1" d="M18,.37C23.47-1.18,25.63,2.49,34.41,4S47.2,2.94,49.81,6c2.12,2.54,2,7.23,0,8.71-2.11,1.63-5.85-1-8.17,1.1a4.22,4.22,0,0,0-1.23,2.38q-.27,6.45-.53,12.86l-3.79.11c-.52,2.52-1.63,6-4.25,7-3.66,1.4-7.93-2.85-9.58-1.41-.6.53-1,1.92.73,6.2A25.05,25.05,0,0,1,10.25,41.1a24,24,0,0,1-5.77-3.55c4.94-2.3,6.58-4.89,7.15-6.86,1.25-4.27-2.28-6.44-2.82-14.1-.2-2.83-.52-7.5,2.42-11.48A13.27,13.27,0,0,1,18,.37Z"/><path class="cls-2" d="M23,43q3.49,4.47,6.92,9.39A198.55,198.55,0,0,1,56,106.05l-29.12,12.4Q14.22,87.82,1.58,57.18a19,19,0,0,1-1.06-12,18.56,18.56,0,0,1,4-7.66Z"/><path class="cls-3" d="M18,.37C23.47-1.18,25.63,2.49,34.41,4S47.2,2.94,49.81,6c2.12,2.54,2,7.23,0,8.71-2.11,1.63-5.85-1-8.17,1.1a4.22,4.22,0,0,0-1.23,2.38q-.27,6.45-.53,12.86l-3.79.11c-.52,2.52-1.63,6-4.25,7-3.66,1.4-7.93-2.85-9.58-1.41-.6.53-1,1.92.73,6.2L4.48,37.55l.42-.46a19.62,19.62,0,0,1,3.54-2.81,11.56,11.56,0,0,0,3.19-3.59c2-3.54-2.3-6.71-2.82-14.1-.2-2.83-.52-7.5,2.42-11.48A13.27,13.27,0,0,1,18,.37Z"/><path class="cls-4" d="M18,.45c5.45-1.56,7.61,2.11,16.39,3.66S47.2,3,49.81,6.11c2.12,2.53,2,7.22,0,8.71s-4.23,1.41-8.17,1.1c-5.82-.47-7.53-2.1-9.89-.82-1,.52-1.79,1.92-3.43,4.69C25.6,24.38,24.78,27.12,23.9,27c-.45-.08-.67-1-1.09-2.67-.85-3.56-.31-4.73-1.33-5.77A3.18,3.18,0,0,0,17.8,18c-1.07.74-1,2.47-1,3.25.14,3.4,2.45,4.55,2.13,6.18-.21,1.08-1.57,2.46-7.34,3.36a40.26,40.26,0,0,1-2.82-14.1c-.06-4.48-.06-8.12,2.42-11.49A13.24,13.24,0,0,1,18,.45Z"/><path class="cls-5" d="M87.7,50.12c.4.21.47.82.48,1C88.34,52.28,90.1,57.26,93,65c1.35.7,11.44,5.91,14.73,8.1.53.36,1.56,1.08,1.48,1.89s-1,1.24-1.47,1.44c-2.15,1-15,7-32.68,15.18C68.82,76.29,64.35,65.44,63.86,64.54a1.35,1.35,0,0,1-.19-1,1.53,1.53,0,0,1,.83-.81C65.93,62.05,85,51.27,86.39,50.46,86.58,50.29,87.23,49.88,87.7,50.12Z"/><path class="cls-6" d="M93,65c1.35.7,11.44,5.91,14.73,8.1.53.36,1.56,1.08,1.48,1.89s-1,1.24-1.47,1.44c-2.15,1-15,7-32.68,15.18L70.14,79.52Z"/><path class="cls-7" d="M89.28,68.69,67.1,52.27l1.42-1.92L90.7,66.76l1.77,2.3Z"/><path class="cls-8" d="M12.49,45c-3,.92-4,5.39-4.24,6.63-1.08,5,.57,8.87,4,17.36,1.27,3.12,3.38,8.39,6,15.26l14.66-8.45c-1.68-4.64-3.22-8.69-4.52-12-3.68-9.39-5.44-13-9.14-16.07C17.7,46.36,15,44.22,12.49,45Z"/><path class="cls-3" d="M19.7,83.45c.85,3.19,1.86,6.55,3.05,10a148.13,148.13,0,0,0,5.64,14.11c1.26-.69,3.54-2,6.3-3.73C46.28,96.51,55.06,88.32,68.25,76c6.6-6.17,7.58-7.44,10.12-8.67a14,14,0,0,0,4.29-3.23c1-1.17,2.18-2.42,2.12-4.12-.09-2.46-2.6-4-3.12-4.31a5.29,5.29,0,0,0-3.67-1c-2.26.47-3,3.31-4.35,5.74-1.11,2-4.77,4.75-12,10.1-6.39,4.71-6.29,4.21-10.71,7.68-2.54,2-5.19,3.86-7.67,5.94-3.8,3.2-5.34,4.88-6.6,4.36s-.91-2.43-2.09-6.37a31.53,31.53,0,0,0-2.44-5.89Z"/><path class="cls-9" d="M40.43,59.71l24.09,8.74-7.75,5.6L42.15,72.77l-3.52-6.32Z"/><path class="cls-8" d="M54.41,101.89C59.7,99.13,86.16,85.35,90,84.59a6.75,6.75,0,0,1,1.42-.11c2.41.11,4.33,1.73,5.65,3.26L55.47,105.61C55.12,104.37,54.76,103.13,54.41,101.89Z"/><path class="cls-8" d="M30,52.37l11.9,4.8a12.23,12.23,0,0,1-3.22,9.29Q34.28,59.46,30,52.37Z"/><path class="cls-10" d="M26.7,117.62C67,100.56,96.09,88.25,100.28,86.35a5.57,5.57,0,0,1,8.31,3c3.18,6.45,4.34,36.89,4.39,38.29H95.84Q95,122,94.08,116.45l-25.3,11.18-40-.1Q27.7,122.58,26.7,117.62Z"/></g></g></svg>